<?xml version="1.0" encoding="utf-8"?>
<!-- Generator: Adobe Illustrator 21.1.0, SVG Export Plug-In . SVG Version: 6.00 Build 0)  -->
<svg version="1.1" id="Layer_1" xmlns="http://www.w3.org/2000/svg" xmlns:xlink="http://www.w3.org/1999/xlink" x="0px" y="0px"
	 viewBox="0 0 24 24" style="enable-background:new 0 0 24 24;" xml:space="preserve">
<style type="text/css">
	.st0{fill:#4ECDC4;}
</style>
<g id="_x32_H1Whs.tif">
	<g>
		<path class="st0" d="M1.9,14.6c0-0.4,0.2-0.8,0.5-1.1c1.2-1.2,2.3-2.5,3.5-3.7c1.7-1.8,3.3-3.5,5-5.3c0.2-0.2,0.4-0.4,0.6-0.5
			C12,3.9,12.5,4,12.9,4.4c1,1.1,2,2.1,3,3.2c0.8,0.9,1.6,1.8,2.5,2.6c1,1.1,2.1,2.2,3.1,3.3c0.6,0.6,0.6,1.6,0,2.2
			c-0.6,0.6-1.1,1.2-1.7,1.8c-0.1,0.1-0.2,0.3-0.4,0.4c-0.6,0.5-1.4,0.5-1.9-0.1c-0.6-0.6-1.2-1.3-1.8-1.9c-1.2-1.3-2.5-2.6-3.7-3.9
			c-0.1-0.1-0.2-0.1-0.3,0c-1.5,1.6-3,3.2-4.6,4.9c-0.3,0.3-0.6,0.6-0.8,0.9c-0.6,0.6-1.5,0.6-2.1,0c-0.7-0.7-1.3-1.4-2-2.1
			C2,15.5,1.9,15.1,1.9,14.6z"/>
	</g>
</g>
</svg>
