<?xml version="1.0" encoding="utf-8"?>
<!-- Generator: Adobe Illustrator 21.0.2, SVG Export Plug-In . SVG Version: 6.00 Build 0)  -->
<svg version="1.1" id="Layer_1" xmlns="http://www.w3.org/2000/svg" xmlns:xlink="http://www.w3.org/1999/xlink" x="0px" y="0px"
	 viewBox="0 0 253 243" style="enable-background:new 0 0 253 243;" xml:space="preserve">
<style type="text/css">
	.st0{fill:#F7F7F7;}
	.st1{fill:none;}
	.st2{fill:#6F7A82;}
</style>
<rect class="st0" width="253" height="243"/>
<g>
	<rect x="-0.2" y="-0.1" class="st1" width="253.5" height="243.1"/>
	<polygon class="st1" points="126.4,0 126.5,-0.1 121.1,9.2 	"/>
	<circle class="st1" cx="189.9" cy="63.1" r="3.5"/>
	<path class="st1" d="M248.2,8.8L252,5l-3.8-3.8l1.2-1.2l-122.9,0l0,0l0.1,0.2l5.3,9.1h-5.3h0h-5.3l5.3-9.3L3.6-0.1l1.2,1.2L1,5
		l3.8,3.8L3.6,10l-3.8-3.8v110.1h5.4l-5.4,9.3v1.1v88.8v21.5v2.4v3.7h3.7h0.3h122.6h0.2h122.6h0.3h3.7v-3.7v-2.4v-21.5v-88.8v-1.1
		l-5.4-9.3h5.4V6.2l-3.8,3.8L248.2,8.8z M189.9,57.8c2.9,0,5.2,2.3,5.2,5.2c0,2.9-2.3,5.2-5.2,5.2c-2.9,0-5.2-2.3-5.2-5.2
		C184.7,60.2,187,57.8,189.9,57.8z M189.9,174.6c2.9,0,5.2,2.3,5.2,5.2c0,2.9-2.3,5.2-5.2,5.2c-2.9,0-5.2-2.3-5.2-5.2
		C184.7,176.9,187,174.6,189.9,174.6z M121.4,117.5l1.2-1.2l3.8,3.8v0l3.8-3.8l1.2,1.2l-3.8,3.8l3.8,3.8l-1.2,1.2l-3.8-3.8v0
		l-3.8,3.8l-1.2-1.2l3.8-3.8L121.4,117.5z M63.1,57.8c2.9,0,5.2,2.3,5.2,5.2c0,2.9-2.3,5.2-5.2,5.2c-2.9,0-5.2-2.3-5.2-5.2
		C57.9,60.2,60.2,57.8,63.1,57.8z M63.1,174.6c2.9,0,5.2,2.3,5.2,5.2c0,2.9-2.3,5.2-5.2,5.2c-2.9,0-5.2-2.3-5.2-5.2
		C57.9,176.9,60.2,174.6,63.1,174.6z"/>
	<polygon class="st1" points="249.4,-0.1 253.2,3.7 253.2,-0.1 	"/>
	<path class="st2" d="M189.9,68.3c2.9,0,5.2-2.3,5.2-5.2c0-2.9-2.3-5.2-5.2-5.2c-2.9,0-5.2,2.3-5.2,5.2
		C184.7,65.9,187,68.3,189.9,68.3z M189.9,59.6c1.9,0,3.5,1.6,3.5,3.5c0,1.9-1.6,3.5-3.5,3.5c-1.9,0-3.5-1.6-3.5-3.5
		C186.4,61.1,188,59.6,189.9,59.6z"/>
	<polygon class="st2" points="249.4,-0.1 249.2,0 248.2,1.1 252,5 248.2,8.8 249.4,10 253.2,6.2 253.2,3.7 249.5,0 	"/>
	<polygon class="st1" points="126.5,7.4 126.5,7.4 128.9,7.4 126.5,3.3 126.5,3.3 124.1,7.4 	"/>
	<circle class="st1" cx="63.1" cy="63.1" r="3.5"/>
	<polygon class="st1" points="-0.2,-0.1 -0.2,3.7 3.6,-0.1 	"/>
	<path class="st2" d="M121.1,9.2h5.3h0h5.3L126.6,0l-0.1-0.2l0,0v0l0,0l0,0v0L126.4,0L121.1,9.2z M126.5,3.3L126.5,3.3l2.4,4.1h-2.4
		h0h-2.4L126.5,3.3z"/>
	<path class="st2" d="M63.1,68.3c2.9,0,5.2-2.3,5.2-5.2c0-2.9-2.3-5.2-5.2-5.2c-2.9,0-5.2,2.3-5.2,5.2
		C57.9,65.9,60.2,68.3,63.1,68.3z M63.1,59.6c1.9,0,3.5,1.6,3.5,3.5c0,1.9-1.6,3.5-3.5,3.5c-1.9,0-3.5-1.6-3.5-3.5
		C59.6,61.1,61.2,59.6,63.1,59.6z"/>
	<polygon class="st2" points="4.8,8.8 1,5 4.8,1.1 3.8,0 3.6,-0.1 3.5,0 -0.2,3.7 -0.2,6.2 3.6,10 	"/>
	<circle class="st1" cx="63.1" cy="179.8" r="3.5"/>
	<polygon class="st1" points="-0.2,118 -0.2,120.8 -0.2,122.1 2.1,118 	"/>
	<path class="st2" d="M63.1,185.1c2.9,0,5.2-2.3,5.2-5.2c0-2.9-2.3-5.2-5.2-5.2c-2.9,0-5.2,2.3-5.2,5.2
		C57.9,182.7,60.2,185.1,63.1,185.1z M63.1,176.3c1.9,0,3.5,1.6,3.5,3.5c0,1.9-1.6,3.5-3.5,3.5c-1.9,0-3.5-1.6-3.5-3.5
		C59.6,177.9,61.2,176.3,63.1,176.3z"/>
	<polygon class="st2" points="-0.2,116.3 -0.2,117.3 -0.2,118 2.1,118 -0.2,122.1 -0.2,124.9 -0.2,125.5 5.1,116.3 	"/>
	<polygon class="st2" points="122.7,126.4 126.5,122.6 126.5,122.6 130.3,126.4 131.6,125.2 127.7,121.3 131.6,117.5 130.3,116.3 
		126.5,120.1 126.5,120.1 122.7,116.3 121.4,117.5 125.3,121.3 121.4,125.2 	"/>
	<circle class="st1" cx="189.9" cy="179.8" r="3.5"/>
	<polygon class="st1" points="253.2,122.1 253.2,120.8 253.2,118 250.9,118 	"/>
	<path class="st2" d="M189.9,185.1c2.9,0,5.2-2.3,5.2-5.2c0-2.9-2.3-5.2-5.2-5.2c-2.9,0-5.2,2.3-5.2,5.2
		C184.7,182.7,187,185.1,189.9,185.1z M189.9,176.3c1.9,0,3.5,1.6,3.5,3.5c0,1.9-1.6,3.5-3.5,3.5c-1.9,0-3.5-1.6-3.5-3.5
		C186.4,177.9,188,176.3,189.9,176.3z"/>
	<polygon class="st2" points="253.2,125.5 253.2,124.9 253.2,122.1 250.9,118 253.2,118 253.2,117.3 253.2,116.3 247.9,116.3 	"/>
</g>
</svg>
