<?xml version="1.0" encoding="utf-8"?>
<!-- Generator: Adobe Illustrator 21.1.0, SVG Export Plug-In . SVG Version: 6.00 Build 0)  -->
<svg version="1.1" id="Layer_1" xmlns="http://www.w3.org/2000/svg" xmlns:xlink="http://www.w3.org/1999/xlink" x="0px" y="0px"
	 viewBox="0 0 515 63.1" style="enable-background:new 0 0 515 63.1;" xml:space="preserve">
<style type="text/css">
	.st0{fill:#4ECDC4;}
</style>
<g>
	<polygon class="st0" points="0,49.3 0,63 13.7,63 	"/>
	<polygon class="st0" points="25.2,0.1 38.9,13.7 38.9,0.1 	"/>
	<path class="st0" d="M43,34.9c-0.2-0.5-0.4-0.9-0.6-1.3c0,0,0-0.1-0.1-0.1c-2.3-4.7-6.2-6.9-6.2-6.9l0,0c-2.7-2.1-15.2-5.8-16.6-7
		c-4.8-2.8-8.1-8.1-8.1-14.3c0-1.3,0.1-2.5,0.4-3.8l0.1-0.2c0,0-1,0.2-1.8,0.4l0,0c-3.1,1-7.7,4.1-9.4,10c-0.7,2.2-2,8.9,3,14.5
		c0.8,0.9,2.1,2.2,3.7,3.1c1.7,1.1,5.1,3,11.2,5c0,0,3.9,1.2,6.8,3.2c4.4,3.4,7.2,8.8,7.2,14.9c0,3.2-2.2,9.1-2.3,9.3
		c2.3-0.5,14.1-4.4,14.4-18.6C44.7,43.1,44.9,39.6,43,34.9z"/>
	<polygon class="st0" points="222.7,49.3 222.7,63 236.4,63 	"/>
	<polygon class="st0" points="247.2,0.1 260.8,13.7 260.9,0.1 	"/>
	<path class="st0" d="M265,34.9c-0.2-0.5-0.4-0.9-0.6-1.3c0,0,0-0.1-0.1-0.1c-2.3-4.7-6.2-6.9-6.2-6.9l0,0c-2.7-2.1-15.2-5.8-16.6-7
		c-4.8-2.8-8.1-8.1-8.1-14.3c0-1.3,0.1-2.5,0.4-3.8l0.1-0.2c0,0-1,0.2-1.8,0.4l0,0c-3.1,0.9-7.7,3.9-9.4,9.9c-0.7,2.2-2,8.9,3,14.5
		c0.8,0.9,2.1,2.2,3.7,3.1c1.7,1.1,5.1,3,11.2,5c0,0,3.9,1.2,6.8,3.2c4.4,3.4,7.2,8.8,7.2,14.9c0,3.2-2.2,9.1-2.3,9.3
		c2.3-0.5,14.1-4.4,14.4-18.6C266.7,43.1,266.9,39.6,265,34.9z"/>
	<path class="st0" d="M119.1,15.3c-1.4-4.8-3.7-7.5-3.7-7.5c-9-11-20.6-6.8-22.8-5.8c0,0,0.1,0,0.2,0.1c7,1.7,12,10.1,11.4,19.8
		c-0.5,7.8-4.4,14.3-9.7,17c2.7,0.8,10.1,2.2,16.8-2.7c4.8-3,8.2-8.3,8.6-14.4C119.9,19.6,119.1,15.3,119.1,15.3z"/>
	<path class="st0" d="M85.7,40.7v-6.3v-3.8V3.9V0.1c-1.7,0-3.3,0-5,0.1c-2.9,0.1-5.7,0.1-8.6,0.1H63v3.8h7.8v55.1l0,0V63h22.7v-3.8
		h-7.8V40.7z"/>
	<g>
		<path class="st0" d="M159.3,59.4c-1.5-0.8-2.8-1.2-3.8-2.9c-1.3-2-2.2-7.4-2.8-10.9c-0.6-3.6-1-8.3-1-13.9c0-4.3,0.2-8.2,0.6-11.8
			c0.4-3.4,1.1-8.9,2.2-11.4c1.1-2.3,2.8-3.6,4.8-4.8c0.1-0.1,0-3.7,0-3.7c-1.2,0.3-2.4,0.7-3.6,1.2c-3.9,1.5-7.4,3.8-10.6,6.6
			c-3.1,2.8-5.7,6.3-7.7,10.3s-3.1,8.6-3.1,13.6c0,4.6,0.9,8.9,2.7,12.8s4.2,7.3,7.2,10.2s6.5,5.2,10.5,6.8c1.5,0.6,3,1.1,4.5,1.5
			v-3.6H159.3z"/>
	</g>
	<path class="st0" d="M174.8,3.7c1.5,0.8,2.8,1.2,3.8,2.9c1.3,2,2.2,7.4,2.8,10.9c0.6,3.6,1,8.3,1,13.9c0,4.3-0.2,8.2-0.6,11.8
		c-0.4,3.4-1.1,8.9-2.2,11.4c-1.1,2.3-2.8,3.6-4.8,4.8c-0.1,0.1,0,3.7,0,3.7c1.2-0.3,2.4-0.7,3.6-1.2c3.9-1.5,7.4-3.8,10.6-6.6
		c3.1-2.8,5.7-6.3,7.7-10.3s3.1-8.6,3.1-13.6c0-4.6-0.9-8.9-2.7-12.8s-4.2-7.3-7.2-10.2s-6.5-5.2-10.5-6.8c-1.5-0.6-3-1.1-4.5-1.5
		v3.6C174.9,3.7,174.8,3.7,174.8,3.7z"/>
	<polygon class="st0" points="288.7,48.9 295.3,63 280,63 	"/>
	<polygon class="st0" points="336.6,59.2 310.2,0 307.1,0 301.9,13.6 312.7,38.1 301.9,38.1 301.9,41.9 314.3,41.9 323.6,63 
		344.1,63 344.1,59.2 	"/>
	<g>
		<polygon class="st0" points="383.4,0 382.7,0 382.7,0 371.2,0 371.2,0 370.6,0 370.5,0 370.5,0 369.8,0 370,63 370.6,63 390.5,63 
			391.2,63 391.2,58.5 383.4,58.5 		"/>
		<polygon class="st0" points="349.5,15.9 365.4,0 349.5,0 		"/>
		<polygon class="st0" points="387.8,0 403.7,15.9 403.7,0 		"/>
	</g>
	<g>
		<path class="st0" d="M440.9,59.4c-1.5-0.8-2.8-1.2-3.8-2.9c-1.3-2-2.2-7.4-2.8-10.9c-0.6-3.6-1-8.3-1-13.9c0-4.3,0.2-8.2,0.6-11.8
			c0.4-3.4,1.1-8.9,2.2-11.4c1.1-2.3,2.8-3.6,4.8-4.8c0.1-0.1,0-3.7,0-3.7c-1.2,0.3-2.4,0.7-3.6,1.2c-3.9,1.5-7.4,3.8-10.6,6.6
			c-3.1,2.8-5.7,6.3-7.7,10.3s-3.1,8.6-3.1,13.6c0,4.6,0.9,8.9,2.7,12.8c1.8,3.9,4.2,7.3,7.2,10.2s6.5,5.2,10.5,6.8
			c1.5,0.6,3,1.1,4.5,1.5L440.9,59.4L440.9,59.4z"/>
	</g>
	<path class="st0" d="M456.3,3.7c1.5,0.8,2.8,1.2,3.8,2.9c1.3,2,2.2,7.4,2.8,10.9c0.6,3.6,1,8.3,1,13.9c0,4.3-0.2,8.2-0.6,11.8
		c-0.4,3.4-1.1,8.9-2.2,11.4c-1.1,2.3-2.8,3.6-4.8,4.8c-0.1,0.1,0,3.7,0,3.7c1.2-0.3,2.4-0.7,3.6-1.2c3.9-1.5,7.4-3.8,10.6-6.6
		c3.1-2.8,5.7-6.3,7.7-10.3s3.1-8.6,3.1-13.6c0-4.6-0.9-8.9-2.7-12.8c-1.8-3.9-4.2-7.3-7.2-10.2s-6.5-5.2-10.5-6.8
		c-1.5-0.6-3-1.1-4.5-1.5L456.3,3.7L456.3,3.7z"/>
	<circle class="st0" cx="506.3" cy="54.3" r="8.7"/>
</g>
</svg>
