<?xml version="1.0" standalone="no"?>
<!DOCTYPE svg PUBLIC "-//W3C//DTD SVG 20010904//EN"
 "http://www.w3.org/TR/2001/REC-SVG-20010904/DTD/svg10.dtd">
<svg version="1.0" xmlns="http://www.w3.org/2000/svg"
 width="182.000000pt" height="182.000000pt" viewBox="0 0 182.000000 182.000000"
 preserveAspectRatio="xMidYMid meet">
<metadata>
Created by potrace 1.11, written by Peter Selinger 2001-2013
</metadata>
<g transform="translate(0.000000,182.000000) scale(0.100000,-0.100000)"
fill="#000000" stroke="none">
<path d="M0 915 l0 -905 910 0 910 0 0 905 0 905 -910 0 -910 0 0 -905z m1070
530 c0 -80 -3 -145 -6 -145 -8 0 -284 274 -284 283 0 4 65 7 145 7 l145 0 0
-145z m-580 35 c0 -98 25 -170 81 -234 52 -59 97 -85 239 -136 214 -78 282
-129 343 -258 30 -63 32 -74 32 -182 0 -110 -2 -118 -33 -182 -41 -83 -129
-168 -204 -196 -29 -11 -54 -16 -56 -12 -2 5 7 41 19 80 42 139 8 288 -90 388
-48 48 -101 77 -216 117 -180 63 -287 136 -335 232 -21 41 -25 62 -25 143 0
81 4 103 25 145 31 62 98 130 153 155 66 30 67 30 67 -60z m1018 -960 c91 -56
96 -190 9 -252 -42 -30 -125 -31 -164 -2 -69 52 -88 134 -47 204 38 66 136 90
202 50z m-1118 -129 c77 -77 140 -142 140 -145 0 -3 -65 -6 -145 -6 l-145 0 0
145 c0 80 2 145 5 145 3 0 68 -63 145 -139z"/>
</g>
</svg>
